<mxfile host="app.diagrams.net" modified="2024-06-27T15:26:10.823Z" agent="Mozilla/5.0 (X11; Linux x86_64) AppleWebKit/537.36 (KHTML, like Gecko) Chrome/126.0.0.0 Safari/537.36" version="24.6.3" etag="5rp_c4qMX8LK77AGzGfH" type="github">
  <diagram name="Page-1" id="CVLR7P7-JwrgKJYkrLkE">
    <mxGraphModel>
      <root>
        <mxCell id="0" />
        <mxCell id="1" parent="0" />
      </root>
    </mxGraphModel>
  </diagram>
</mxfile>
